<svg width="256" height="256" viewBox="0 0 256 256" fill="none" xmlns="http://www.w3.org/2000/svg">
<path d="M122 36.5C88.5 39 58.5 51.5 45 68.5C36 82 4 173 29.5 213L32 201C36.3814 213.82 40 220.5 48.5 224C45.2719 213.709 43.239 209.341 43 202.5C31.0212 191.677 25.5603 184.577 23 166C27 144.5 41 131.5 54.5 109.5C57.5 100.5 59 88 62 73C58.7336 100.152 65.1081 111.814 83 120C78.9772 110.92 76.9403 106.012 77.5 99.5C81.6435 109.261 84.9024 113.353 92.5 118C87.4453 106.311 86.4826 95.7697 88.3034 88C92.2461 71.1758 109.24 67.347 126 93C154.525 74.3965 174.505 82.4547 167.569 100.5C166.117 104.28 163.483 108.497 159.5 113C164.668 112.747 167.434 112.543 172 112C168.869 119.03 164.179 124.065 157 131.5C173.55 129.661 183.242 124.978 194 113.5C194 160.896 189.95 188.468 161.5 223.542C158.736 226.949 155.743 230.426 152.5 234C161.772 231.93 167.788 228.473 175 224C173.876 229.009 173.209 232.417 172 236.5C250 189.5 267 119 223.5 69.5C191.787 38.6681 169.461 31.675 122 36.5Z" fill="#6E5D97"/>
<path d="M126 93C109.24 67.347 92.2461 71.1758 88.3034 88C118.07 91.2289 143 96 167.569 100.5C174.505 82.4547 154.525 74.3965 126 93Z" fill="#6E5D97"/>
<path d="M194 113.5C183.242 124.978 173.55 129.661 157 131.5C164.179 124.065 168.869 119.03 172 112C167.434 112.543 164.668 112.747 159.5 113C163.483 108.497 166.117 104.28 167.569 100.5C143 96 118.07 91.2289 88.3034 88C86.4826 95.7697 87.4453 106.311 92.5 118C84.9024 113.353 81.6435 109.261 77.5 99.5C76.9403 106.012 78.9772 110.92 83 120C65.1081 111.814 58.7336 100.152 62 73C59 88 57.5 100.5 54.5 109.5C41 131.5 27 144.5 23 166C25.5603 184.577 31.0212 191.677 43 202.5C78.5 219.5 109.5 223.542 161.5 223.542C189.95 188.468 194 160.896 194 113.5Z" fill="#FFE9E4"/>
<path d="M43 202.5C43.239 209.341 45.2719 213.709 48.5 224C40 220.5 36.3814 213.82 32 201L29.5 213C4 173 36 82 45 68.5C58.5 51.5 88.5 39 122 36.5C169.461 31.675 191.787 38.6681 223.5 69.5C267 119 250 189.5 172 236.5C173.209 232.417 173.876 229.009 175 224C167.788 228.473 161.772 231.93 152.5 234C155.743 230.426 158.736 226.949 161.5 223.542M43 202.5C31.0212 191.677 25.5603 184.577 23 166C27 144.5 41 131.5 54.5 109.5C57.5 100.5 59 88 62 73C58.7336 100.152 65.1081 111.814 83 120C78.9772 110.92 76.9403 106.012 77.5 99.5C81.6435 109.261 84.9024 113.353 92.5 118C87.4453 106.311 86.4826 95.7697 88.3034 88M43 202.5C78.5 219.5 109.5 223.542 161.5 223.542M194 113.5C201.932 90.1972 198.841 81.8931 180 75.5M194 113.5C183.242 124.978 173.55 129.661 157 131.5C164.179 124.065 168.869 119.03 172 112C167.434 112.543 164.668 112.747 159.5 113C163.483 108.497 166.117 104.28 167.569 100.5M194 113.5C194 160.896 189.95 188.468 161.5 223.542M88.3034 88C92.2461 71.1758 109.24 67.347 126 93C154.525 74.3965 174.505 82.4547 167.569 100.5M88.3034 88C118.07 91.2289 143 96 167.569 100.5" stroke="black" stroke-width="4" stroke-linecap="round" stroke-linejoin="round"/>
<path d="M145.5 139.5C128.905 139.713 123.008 144.118 119 156.5C116.5 168.757 120.611 174.688 135 181C155 186 165 180.5 166.5 167.5C168 154.5 159 142.5 145.5 139.5Z" fill="#2F2F2F"/>
<path d="M70.5 131C55.9854 132.109 49 136.5 49 149.5C50.3008 163.293 54.379 167.648 70 167C84.5674 166.438 91.5 158.5 92.5 149.5C92.5 137.5 82.8941 131.049 70.5 131Z" fill="#2F2F2F"/>
<path d="M98.5 112C95.9274 111.644 94.6166 111.649 92.5 112M142 118.5C148.713 118.431 151.967 118.282 157 119.5M58.5 126.5C73.5 119.5 87.3763 120.508 93.5 130M130.5 132.5C148.5 125.5 165.858 130.142 171.5 147.5M73.5 179C79 187.5 86 189 95 184C101.5 194.5 116.5 195 121.5 190M145.5 139.5C128.905 139.713 123.008 144.118 119 156.5C116.5 168.757 120.611 174.688 135 181C155 186 165 180.5 166.5 167.5C168 154.5 159 142.5 145.5 139.5ZM70.5 131C55.9854 132.109 49 136.5 49 149.5C50.3008 163.293 54.379 167.648 70 167C84.5674 166.438 91.5 158.5 92.5 149.5C92.5 137.5 82.8941 131.049 70.5 131Z" stroke="black" stroke-width="4" stroke-linecap="round" stroke-linejoin="round"/>
</svg>
